<svg xmlns="http://www.w3.org/2000/svg" width="24" height="24" viewBox="0 0 24 24">
    <g fill="none" fill-rule="evenodd">
        <g>
            <g>
                <path d="M0 0L24 0 24 24 0 24z" transform="translate(-596 -373) translate(596 373)"/>
                <path fill="#252B31" fill-rule="nonzero" d="M19 8l-4 4h3c0 3.31-2.69 6-6 6-.977.003-1.94-.237-2.8-.7l-1.46 1.46C9.013 19.57 10.49 20 12 20c4.42 0 8-3.58 8-8h3l-4-4zM6 12c0-3.31 2.69-6 6-6 1.01 0 1.97.25 2.8.7l1.46-1.46C14.987 4.43 13.51 4 12 4c-4.42 0-8 3.58-8 8H1l4 4 4-4H6z" transform="translate(-596 -373) translate(596 373)"/>
            </g>
        </g>
    </g>
</svg>
