<svg xmlns="http://www.w3.org/2000/svg" width="24" height="24" viewBox="0 0 24 24">
    <g fill="none" fill-rule="evenodd">
        <g>
            <g>
                <path d="M0 0L24 0 24 24 0 24z" transform="translate(-676 -373) translate(676 373)"/>
                <path fill="#252B31" fill-rule="nonzero" d="M20 3h-1V1h-2v2H7V1H5v2H4c-1.1 0-2 .9-2 2v16c0 1.1.9 2 2 2h16c1.1 0 2-.9 2-2V5c0-1.1-.9-2-2-2zm0 18H4V10h16v11zm0-13H4V5h16v3z" transform="translate(-676 -373) translate(676 373)"/>
            </g>
        </g>
    </g>
</svg>
