<?xml version="1.0" encoding="UTF-8"?>
<svg width="24px" height="24px" viewBox="0 0 24 24" version="1.1" xmlns="http://www.w3.org/2000/svg" xmlns:xlink="http://www.w3.org/1999/xlink">
    <title>1855FC34-46D7-4B57-8B83-4638CCD8BA6F</title>
    <g id="Style-Guide" stroke="none" stroke-width="1" fill="none" fill-rule="evenodd">
        <g id="Icons" transform="translate(-526.000000, -1333.000000)">
            <g id="components/icon-button/secondary/disabled-focused" transform="translate(518.000000, 1325.000000)">
                <g id="components/icon/columns" transform="translate(8.000000, 8.000000)">
                    <polygon id="Path" points="0 0 24 0 24 24 0 24"></polygon>
                    <path d="M20,3 C20.5522847,3 21,3.44771525 21,4 L21,20 C21,20.5522847 20.5522847,21 20,21 L4,21 C3.44771525,21 3,20.5522847 3,20 L3,4 C3,3.44771525 3.44771525,3 4,3 L20,3 Z M8.75,5 L5,5 L5,19 L8.75,19 L8.75,5 Z M13.75,5 L10.25,5 L10.25,19 L13.75,19 L13.75,5 Z M19,5 L15.25,5 L15.25,19 L19,19 L19,5 Z" id="Combined-Shape" fill="#9FA9B7" fill-rule="nonzero" opacity="0.803571429"></path>
                </g>
            </g>
        </g>
    </g>
</svg>