<svg xmlns="http://www.w3.org/2000/svg" width="24" height="24" viewBox="0 0 24 24">
    <g fill="none" fill-rule="evenodd">
        <g>
            <g>
                <path d="M0 0L24 0 24 24 0 24z" transform="translate(-917 -373) translate(917 373)"/>
                <path fill="#252B31" fill-rule="nonzero" d="M19 15c1.654 0 3 1.346 3 3s-1.346 3-3 3c-1.267-.004-2.394-.805-2.815-2H2v-2h14.185c.42-1.195 1.548-1.996 2.815-2zm0 2c-.535.024-.956.465-.956 1 0 .535.421.976.956 1 .535-.024.956-.465.956-1 0-.535-.421-.976-.956-1zM9 9c1.267.004 2.395.805 2.815 2H22v2H11.815c-.414 1.162-1.513 2-2.815 2s-2.401-.838-2.815-2H2v-2h4.185C6.605 9.805 7.733 9.004 9 9zm0 2c-.535.024-.956.465-.956 1 0 .535.421.976.956 1 .535-.024.956-.465.956-1 0-.535-.421-.976-.956-1zm10-8c1.654 0 3 1.346 3 3s-1.346 3-3 3c-1.267-.004-2.395-.805-2.815-2H2V5h14.185c.42-1.195 1.548-1.996 2.815-2zm0 2c-.535.024-.956.465-.956 1 0 .535.421.976.956 1 .535-.024.956-.465.956-1 0-.535-.421-.976-.956-1z" transform="translate(-917 -373) translate(917 373)"/>
            </g>
        </g>
    </g>
</svg>
