<svg xmlns="http://www.w3.org/2000/svg" xmlns:xlink="http://www.w3.org/1999/xlink" width="24" height="24" viewBox="0 0 24 24">
    <defs>
        <path id="7jvzkr0mla" d="M16 1H4c-1.1 0-2 .9-2 2v14h2V3h12V1zm-1 4H8c-1.1 0-1.99.9-1.99 2L6 21c0 1.1.89 2 1.99 2H19c1.1 0 2-.9 2-2V11l-6-6zM8 21V7h6v5h5v9H8z"/>
    </defs>
    <g fill="none" fill-rule="evenodd">
        <g>
            <g transform="translate(-156 -413) translate(156 413)">
                <path d="M0 0L24 0 24 24 0 24z"/>
                <use fill="#252B31" fill-rule="nonzero" xlink:href="#7jvzkr0mla"/>
            </g>
        </g>
    </g>
</svg>
