<svg xmlns="http://www.w3.org/2000/svg" xmlns:xlink="http://www.w3.org/1999/xlink" width="24" height="24" viewBox="0 0 24 24">
    <defs>
        <path id="nauc27di9a" d="M8 16h8v2H8v-2zm0-4h8v2H8v-2zm6-10H6c-1.1 0-2 .9-2 2v16c0 1.1.89 2 1.99 2H18c1.1 0 2-.9 2-2V8l-6-6zm4 18H6V4h7v5h5v11z"/>
    </defs>
    <g fill="none" fill-rule="evenodd">
        <g>
            <g transform="translate(-236 -413) translate(236 413)">
                <path d="M0 0L24 0 24 24 0 24z"/>
                <use fill="#252B31" fill-rule="nonzero" xlink:href="#nauc27di9a"/>
            </g>
        </g>
    </g>
</svg>
