<svg xmlns="http://www.w3.org/2000/svg" width="24" height="24" viewBox="0 0 24 24">
    <g fill="none" fill-rule="evenodd">
        <g>
            <g>
                <path d="M0 0H24V24H0z" transform="translate(-116 -565) translate(116 565)"/>
                <path fill="#252B31" fill-rule="nonzero" d="M19.998 4.437c.552 0 1 .448 1 1 0 .191-.055.378-.158.538l-5.923 9.28v5.25c0 .552-.448 1-1 1H9.93c-.552 0-1-.448-1-1v-3.256L19.68 4.437h.318zm-2.914-1.776l.101.075c.423.356.478.986.124 1.41l-.245.291h.005l-4.3 5.125-7.595 9.063c-.327.39-.89.468-1.306.198l-.102-.075c-.423-.355-.478-.985-.124-1.409l3.779-4.509-4.27-6.864c-.292-.47-.148-1.086.32-1.378.16-.098.342-.15.53-.15h10.454l1.322-1.578c.327-.391.89-.468 1.307-.199z" transform="translate(-116 -565) translate(116 565)"/>
            </g>
        </g>
    </g>
</svg>
