<svg xmlns="http://www.w3.org/2000/svg" width="24" height="24" viewBox="0 0 24 24">
    <g fill="none" fill-rule="evenodd">
        <g>
            <g>
                <path d="M0 0L24 0 24 24 0 24z" transform="translate(-76 -565) translate(76 565)"/>
                <path fill="#252B31" fill-rule="nonzero" d="M12 3l-.555 5h1.994l.555-5H16l-.557 5H19v2h-3.78l-.446 4H19v2h-4.449l-.557 5H12l.554-5h-1.998L10 21H8l.556-5H5v-2h3.778l.444-4H5V8h4.445L10 3h2zm1.218 7h-1.996l-.444 4h1.997l.443-4z" transform="translate(-76 -565) translate(76 565)"/>
            </g>
        </g>
    </g>
</svg>
