<?xml version="1.0" encoding="UTF-8"?>
<svg width="24px" height="24px" viewBox="0 0 24 24" version="1.1" xmlns="http://www.w3.org/2000/svg" xmlns:xlink="http://www.w3.org/1999/xlink">
    <title>9376E66A-041E-46E3-80D7-1781A4A340FB</title>
    <defs>
        <path d="M12,22 C13.1,22 14,21.1 14,20 L10,20 C10,21.1 10.9,22 12,22 Z M18,16 L18,11 C18,7.93 16.37,5.36 13.5,4.68 L13.5,4 C13.5,3.17 12.83,2.5 12,2.5 C11.17,2.5 10.5,3.17 10.5,4 L10.5,4.68 C7.64,5.36 6,7.92 6,11 L6,16 L4,18 L4,19 L20,19 L20,18 L18,16 Z M16,17 L8,17 L8,11 C8,8.52 9.51,6.5 12,6.5 C14.49,6.5 16,8.52 16,11 L16,17 Z" id="path-1"></path>
    </defs>
    <g id="Style-Guide" stroke="none" stroke-width="1" fill="none" fill-rule="evenodd">
        <g id="Icons" transform="translate(-1196.000000, -1333.000000)">
            <g id="components/icon-button/inverse/disabled-focused" transform="translate(1188.000000, 1325.000000)">
                <g id="components/icon/notifications" transform="translate(8.000000, 8.000000)">
                    <polygon id="Path" points="0 0 24 0 24 24 0 24"></polygon>
                    <mask id="mask-2" fill="white">
                        <use xlink:href="#path-1"></use>
                    </mask>
                    <use id="Shape" fill="#7EB1F4" fill-rule="nonzero" opacity="0.703915551" xlink:href="#path-1"></use>
                </g>
            </g>
        </g>
    </g>
</svg>