<?xml version="1.0" encoding="UTF-8"?>
<svg width="24px" height="24px" viewBox="0 0 24 24" version="1.1" xmlns="http://www.w3.org/2000/svg" xmlns:xlink="http://www.w3.org/1999/xlink">
    <title>5FCA3F62-BF8A-4054-9C9B-2B497322E3C9</title>
    <g id="Style-Guide" stroke="none" stroke-width="1" fill="none" fill-rule="evenodd">
        <g id="Icons" transform="translate(-590.000000, -1111.000000)">
            <g id="components/icon-button/secondary/active" transform="translate(582.000000, 1103.000000)">
                <g id="components/icon/pin/pin-pinned" transform="translate(8.000000, 8.000000)">
                    <polygon id="Path" points="0 0 24 0 24 24 0 24"></polygon>
                    <path d="M16,2 C16.5522847,2 17,2.44771525 17,3 L17,7.76393202 C17,7.91917712 17.0361451,8.07229018 17.1055728,8.21114562 L19.8944272,13.7888544 C19.9638549,13.9277098 20,14.0808229 20,14.236068 L20,17 C20,17.5522847 19.5522847,18 19,18 L13,18 L13,22 L11,22 L11,18 L5,18 C4.44771525,18 4,17.5522847 4,17 L4,14.236068 C4,14.0808229 4.03614509,13.9277098 4.10557281,13.7888544 L6.89442719,8.21114562 C6.96385491,8.07229018 7,7.91917712 7,7.76393202 L7,3 C7,2.44771525 7.44771525,2 8,2 L16,2 Z M15,3.999 L9,3.999 L9,7.76393202 C9,8.15204476 8.92469773,8.53571577 8.77906274,8.89389366 L8.68328157,9.10557281 L6,14.471 L6,15.999 L18,15.999 L18,14.473 L15.3167184,9.10557281 C15.1431491,8.75843422 15.0389186,8.38159224 15.0089965,7.99609825 L15,7.76393202 L15,3.999 Z" id="Combined-Shape" fill="#252B31" fill-rule="nonzero"></path>
                </g>
            </g>
        </g>
    </g>
</svg>