<?xml version="1.0" encoding="UTF-8"?>
<svg width="24px" height="24px" viewBox="0 0 24 24" version="1.1" xmlns="http://www.w3.org/2000/svg" xmlns:xlink="http://www.w3.org/1999/xlink">
    <title>08C17323-8841-4344-8015-51D9FCE12D4B</title>
    <g id="Style-Guide" stroke="none" stroke-width="1" fill="none" fill-rule="evenodd">
        <g id="Icons" transform="translate(-796.000000, -413.000000)">
            <g id="components/icon/refresh" transform="translate(796.000000, 413.000000)">
                <polygon id="Path" points="0 0 24 0 24 24 0 24"></polygon>
                <path d="M17.6485303,6.35 C16.1527394,4.84494857 14.1175904,3.99899972 11.9949969,3.99999911 C7.57223265,3.99999911 4,7.58 4,11.9999991 C4,16.42 7.57223265,19.9999991 11.9949969,19.9999991 C15.7273296,19.9999991 18.8392745,17.45 19.7298311,13.9999991 L17.6485303,13.9999991 C16.8037852,16.3968042 14.5377223,18.0000939 11.9949969,17.9999991 C8.68292683,17.9999991 5.99124453,15.31 5.99124453,11.9999991 C5.99124453,8.69 8.68292683,5.99999911 11.9949969,5.99999911 C13.656035,5.99999911 15.1369606,6.69 16.217636,7.78 L12.9956223,10.9999991 L20,10.9999991 L20,3.99999911 L17.6485303,6.35 Z" id="Path" fill="#252B31" fill-rule="nonzero"></path>
            </g>
        </g>
    </g>
</svg>