<?xml version="1.0" encoding="UTF-8"?>
<svg width="24px" height="24px" viewBox="0 0 24 24" version="1.1" xmlns="http://www.w3.org/2000/svg" xmlns:xlink="http://www.w3.org/1999/xlink">
    <title>C805399D-29B8-4070-B785-A6DCC5D686C2</title>
    <g id="Style-Guide" stroke="none" stroke-width="1" fill="none" fill-rule="evenodd">
        <g id="Icons" transform="translate(-638.000000, -565.000000)">
            <g id="components/icon/report" transform="translate(638.000000, 565.000000)">
                <polygon id="Path" points="0 0 24 0 24 24 0 24"></polygon>
                <path d="M8,9 L10,9 L10,18 L11,18 L11,12 L13,12 L13,18 L14,18 L14,13.9434509 L16,14 L16,18 L8,18 L8,9 Z M14,2 L6,2 C4.9,2 4,2.9 4,4 L4,20 C4,21.1 4.89,22 5.99,22 L18,22 C19.1,22 20,21.1 20,20 L20,8 L14,2 Z M18,20 L6,20 L6,4 L13,4 L13,9 L18,9 L18,20 Z" id="Shape" fill="#252B31" fill-rule="nonzero"></path>
            </g>
        </g>
    </g>
</svg>