<?xml version="1.0" encoding="UTF-8"?>
<svg width="24px" height="24px" viewBox="0 0 24 24" version="1.1" xmlns="http://www.w3.org/2000/svg" xmlns:xlink="http://www.w3.org/1999/xlink">
    <title>2CE2F6F1-C7F2-4606-8FE3-E7606F875CF9</title>
    <g id="Style-Guide" stroke="none" stroke-width="1" fill="none" fill-rule="evenodd">
        <g id="Icons" transform="translate(-876.000000, -413.000000)">
            <g id="components/icon/restore" transform="translate(876.000000, 413.000000)">
                <polygon id="Path" points="0 0 24 0 24 24 0 24"></polygon>
                <path d="M13,3 C8.02943725,3 4,7.02943725 4,12 L1,12 L5,15.99 L9,12 L6,12 C6,8.13 9.13,5 13,5 C16.87,5 20,8.13 20,12 C20,15.87 16.87,19 13,19 C11.07,19 9.32,18.21 8.06,16.94 L6.64,18.36 C8.3233257,20.0526126 10.612844,21.0029787 13,21 C17.9705627,21 22,16.9705627 22,12 C22,7.02943733 17.9705627,3 13,3 Z M12,8 L12,13 L16.25,15.52 L17.02,14.24 L13.5,12.15 L13.5,8 L12,8 Z" id="Shape" fill="#252B31" fill-rule="nonzero"></path>
            </g>
        </g>
    </g>
</svg>