<?xml version="1.0" encoding="UTF-8"?>
<svg width="24px" height="24px" viewBox="0 0 24 24" version="1.1" xmlns="http://www.w3.org/2000/svg" xmlns:xlink="http://www.w3.org/1999/xlink">
    <title>EBEE440A-BC77-447D-863D-87711D2C44D3</title>
    <g id="Style-Guide" stroke="none" stroke-width="1" fill="none" fill-rule="evenodd">
        <g id="Icons" transform="translate(-917.000000, -413.000000)">
            <g id="components/icon/save" transform="translate(917.000000, 413.000000)">
                <polygon id="Path" points="0 0 24 0 24 24 0 24"></polygon>
                <path d="M19,12 L19,19 L5,19 L5,12 L3,12 L3,19 C3,20.1 3.9,21 5,21 L19,21 C20.1,21 21,20.1 21,19 L21,12 L19,12 Z M13,12.67 L15.59,10.09 L17,11.5 L12,16.5 L7,11.5 L8.41,10.09 L11,12.67 L11,3 L13,3 L13,12.67 Z" id="Shape" fill="#252B31" fill-rule="nonzero"></path>
            </g>
        </g>
    </g>
</svg>