<?xml version="1.0" encoding="UTF-8"?>
<svg width="24px" height="24px" viewBox="0 0 24 24" version="1.1" xmlns="http://www.w3.org/2000/svg" xmlns:xlink="http://www.w3.org/1999/xlink">
    <title>B7D79661-50F2-467D-A507-3354AFD86839</title>
    <g id="Style-Guide" stroke="none" stroke-width="1" fill="none" fill-rule="evenodd">
        <g id="Icons" transform="translate(-116.000000, -453.000000)">
            <g id="components/icon/settings" transform="translate(116.000000, 453.000000)">
                <polygon id="Path" points="0 0 24 0 24 24 0 24"></polygon>
                <path d="M6.21,13.97 L7.41,16.04 C7.49,16.17 7.64,16.22 7.78,16.17 L9.27,15.57 C9.58,15.81 9.91,16.01 10.28,16.16 L10.5,17.75 C10.53,17.89 10.65,18 10.8,18 L13.2,18 C13.35,18 13.47,17.89 13.5,17.74 L13.72,16.15 C14.08,16 14.42,15.8 14.73,15.56 L16.22,16.16 C16.36,16.21 16.51,16.16 16.59,16.03 L17.79,13.96 C17.87,13.83 17.83,13.67 17.72,13.57 L16.45,12.58 C16.48,12.39 16.49,12.19 16.49,12 C16.49,11.8 16.47,11.61 16.45,11.41 L17.72,10.42 C17.83,10.33 17.87,10.16 17.79,10.03 L16.59,7.96 C16.5142915,7.83294256 16.3585432,7.77822018 16.22,7.83 L14.73,8.43 C14.42,8.19 14.09,7.99 13.72,7.84 L13.5,6.25 C13.4716524,6.10623798 13.3465171,6.00195858 13.2,6 L10.8,6 C10.6503438,6.0028732 10.524115,6.11227151 10.5,6.26 L10.28,7.85 C9.92,8 9.57,8.19 9.27,8.43 L7.78,7.83 C7.64,7.78 7.49,7.83 7.41,7.96 L6.21,10.03 C6.13,10.16 6.17,10.32 6.28,10.42 L7.55,11.41 C7.52,11.61 7.5,11.8 7.5,12 C7.5,12.2 7.52,12.39 7.54,12.59 L6.27,13.58 C6.16,13.68 6.13,13.84 6.21,13.97 Z M12,10.29 C12.94,10.29 13.71,11.06 13.71,12 C13.71,12.94 12.94,13.71 12,13.71 C11.06,13.71 10.29,12.94 10.29,12 C10.29,11.06 11.06,10.29 12,10.29 Z M19,3 L5,3 C3.8954305,3 3,3.8954305 3,5 L3,19 C3,20.1045695 3.8954305,21 5,21 L19,21 C20.1045695,21 21,20.1045695 21,19 L21,5 C21,3.8954305 20.1045695,3 19,3 Z M19,19 L5,19 L5,5 L19,5 L19,19 Z" id="Shape" fill="#252B31" fill-rule="nonzero"></path>
            </g>
        </g>
    </g>
</svg>