<?xml version="1.0" encoding="UTF-8"?>
<svg width="24px" height="24px" viewBox="0 0 24 24" version="1.1" xmlns="http://www.w3.org/2000/svg" xmlns:xlink="http://www.w3.org/1999/xlink">
    <title>752B4DD0-3B5D-4914-9815-6A4D26003229</title>
    <g id="Style-Guide" stroke="none" stroke-width="1" fill="none" fill-rule="evenodd">
        <g id="Icons" transform="translate(-196.000000, -453.000000)">
            <g id="components/icon/update" transform="translate(196.000000, 453.000000)">
                <polygon id="Path" points="0 0 24 0 24 24 0 24"></polygon>
                <path d="M11,8.00003712 L11,13.0000371 L15.25,15.5200371 L16.02,14.2400371 L12.5,12.1500371 L12.5,8.00003712 L11,8.00003712 Z M21,10.0000371 L21,3.00001849 L18.36,5.64003712 C16.6777494,3.94582227 14.3875316,2.99516583 12,3.00001849 C7.02943725,3.00001849 3,7.02947437 3,12.0000371 C3,16.9705999 7.02943725,21.0000371 12,21.0000371 C16.9705627,21.0000371 21,16.9705999 21,12.0000371 L19,12.0000371 C19,15.8600371 15.86,19.0000371 12,19.0000371 C8.14,19.0000371 5,15.8600371 5,12.0000371 C5,8.14003712 8.14,5.00003712 12,5.00003712 C13.93,5.00003712 15.68,5.79003712 16.95,7.05003712 L14,10.0000371 L21,10.0000371 Z" id="Shape" fill="#252B31" fill-rule="nonzero"></path>
            </g>
        </g>
    </g>
</svg>